<svg width="143" height="45" viewBox="0 0 143 45" fill="none" xmlns="http://www.w3.org/2000/svg">
<path d="M76.7991 26.7071V16.5548H65.4104V26.7071H60.2672V2.5611H65.4104V12.0732H76.8909V2.5611H82.1261V26.7071H76.7991Z" fill="#40CDF7"/>
<path d="M88.2791 26.7071V2.5611H93.4224V26.7071H88.2791Z" fill="#40CDF7"/>
<path d="M113.444 26.7071L108.668 18.1097H104.903V26.7071H99.7594V2.5611H111.148C116.199 2.5611 119.322 5.85374 119.322 10.3354C119.322 14.6341 116.659 16.9207 113.995 17.4694L119.414 26.7071H113.444ZM113.903 10.3354C113.903 8.32322 112.342 7.04274 110.23 7.04274H104.811V13.5366H110.23C112.342 13.5366 113.903 12.3476 113.903 10.3354Z" fill="#40CDF7"/>
<path d="M124.558 26.7071V2.5611H141.733V7.13421H129.702V12.2561H141.458V16.8292H129.702V22.3169H141.733V26.89H124.558V26.7071Z" fill="#40CDF7"/>
<path d="M80.6567 42.4386L78.4524 38.6886H76.7074V42.4386H74.9623V32.3777H79.3709C81.3914 32.3777 82.6773 33.6582 82.6773 35.4874C82.6773 37.3167 81.4833 38.2313 80.2893 38.4142L82.7691 42.3471H80.6567V42.4386ZM80.8404 35.5789C80.8404 34.5728 80.1056 34.0241 79.0953 34.0241H76.7074V37.2252H79.0953C80.1056 37.1338 80.8404 36.4935 80.8404 35.5789Z" fill="#1F2A40"/>
<path d="M87.9148 37.4094C87.9148 34.3912 90.0273 32.1961 93.0581 32.1961C96.089 32.1961 98.2014 34.3912 98.2014 37.4094C98.2014 40.4277 96.089 42.6228 93.0581 42.6228C90.0273 42.6228 87.9148 40.4277 87.9148 37.4094ZM96.3645 37.4094C96.3645 35.3058 95.0787 33.7509 93.0581 33.7509C91.0375 33.7509 89.7517 35.3058 89.7517 37.4094C89.7517 39.5131 91.0375 41.0679 93.0581 41.0679C95.0787 41.0679 96.3645 39.5131 96.3645 37.4094Z" fill="#1F2A40"/>
<path d="M103.893 38.5057V32.3777H105.638V38.4142C105.638 39.9691 106.556 41.0666 108.21 41.0666C109.863 41.0666 110.781 40.0606 110.781 38.4142V32.3777H112.526V38.4142C112.526 40.8837 111.057 42.53 108.21 42.53C105.27 42.6215 103.893 40.9752 103.893 38.5057Z" fill="#1F2A40"/>
<path d="M125.753 42.4386L120.517 35.3045V42.4386H118.772V32.3777H120.609L125.753 39.3289V32.3777H127.498V42.4386H125.753Z" fill="#1F2A40"/>
<path d="M133.466 42.4386V32.3777H137.232C140.355 32.3777 142.467 34.4814 142.467 37.4082C142.467 40.3349 140.355 42.4386 137.232 42.4386H133.466ZM140.722 37.4082C140.722 35.4874 139.528 33.9326 137.232 33.9326H135.211V40.8837H137.232C139.436 40.8837 140.722 39.3289 140.722 37.4082Z" fill="#1F2A40"/>
<path d="M69.9112 37.0423C68.258 37.0423 66.6048 37.0423 64.9516 37.0423V38.5972H67.3395H68.0743C67.8906 39.1459 67.7069 39.6033 67.3395 39.9691C66.9721 40.335 66.5129 40.7008 66.0537 40.8837C65.7782 40.9752 65.4108 41.0667 65.0434 41.0667C63.0229 41.0667 61.5533 39.5118 61.5533 37.4082C61.5533 35.3045 63.0229 33.7497 65.0434 33.7497C65.9619 33.7497 66.7885 34.1155 67.4314 34.8472C67.5232 34.9387 67.5232 35.0301 67.6151 35.0301L69.0846 34.207C68.7172 33.6582 68.1661 33.1094 67.5232 32.7436C67.3395 32.6521 67.2477 32.5607 67.064 32.4692C66.9721 32.4692 66.9721 32.4692 66.8803 32.3777C66.7885 32.3777 66.6048 32.2863 66.5129 32.2863C66.4211 32.2863 66.3292 32.2863 66.3292 32.1948C66.2374 32.1948 66.0537 32.1033 65.87 32.1033C65.7782 32.1033 65.7782 32.1033 65.6863 32.1033C65.5026 32.1033 65.319 32.1033 65.0434 32.1033C62.1044 32.1033 59.7165 34.1155 59.7165 37.3167C59.7165 40.4264 62.1044 42.53 65.0434 42.53C65.2271 42.53 65.4108 42.53 65.5945 42.53C65.6863 42.53 65.87 42.53 65.9619 42.4386H66.0537C68.258 41.9813 70.003 40.0606 70.003 37.3167C70.003 37.3167 70.003 37.2252 69.9112 37.0423Z" fill="#1F2A40"/>
<path d="M16.915 27.2555H12.5065V34.664H16.915V27.2555Z" fill="#40CDF7"/>
<path d="M32.8974 10.3355H28.4889V17.561H32.8974V10.3355Z" fill="#40CDF7"/>
<path d="M22.7051 4.39019C30.6955 4.39019 37.8594 9.695 40.0636 17.3778V17.4693H44.6558V17.2864C43.5537 12.4389 40.7065 8.04868 36.7572 4.8475C32.8079 1.73778 27.7565 0 22.7051 0C21.7866 0 20.8682 0.0914622 19.8579 0.182924H19.7661V4.66457H19.8579C20.7764 4.48165 21.7866 4.39019 22.7051 4.39019Z" fill="#40CDF7"/>
<path d="M45.2056 20.3967V20.3052H36.5722V24.421H40.7052C39.6949 33.6587 31.98 40.5183 22.7038 40.5183C12.6928 40.5183 4.6105 32.3782 4.6105 22.5003C4.51865 16.4638 7.54951 10.976 12.5091 7.59194V24.421H28.49V34.6648H32.8985V20.3052H16.9176V0.732269H16.7339C15.3563 1.09812 13.9786 1.64689 12.6009 2.28713H12.4172V2.37859C4.88603 6.31147 0.110138 13.9943 0.110138 22.5003C0.110138 34.9391 10.213 45 22.7038 45C35.1946 45 45.2974 34.9391 45.2974 22.5003C45.2974 21.86 45.2056 21.1283 45.2056 20.3967Z" fill="#1F2A40"/>
</svg>
